%TF.GenerationSoftware,KiCad,Pcbnew,7.0.10*%
%TF.CreationDate,2024-01-27T09:00:16-05:00*%
%TF.ProjectId,CAN_board,43414e5f-626f-4617-9264-2e6b69636164,rev?*%
%TF.SameCoordinates,Original*%
%TF.FileFunction,Soldermask,Top*%
%TF.FilePolarity,Negative*%
%FSLAX46Y46*%
G04 Gerber Fmt 4.6, Leading zero omitted, Abs format (unit mm)*
G04 Created by KiCad (PCBNEW 7.0.10) date 2024-01-27 09:00:16*
%MOMM*%
%LPD*%
G01*
G04 APERTURE LIST*
%ADD10C,3.302000*%
%ADD11C,1.524000*%
G04 APERTURE END LIST*
D10*
%TO.C,H4*%
X171250000Y-120750000D03*
%TD*%
D11*
%TO.C,J2*%
X123481194Y-81724798D03*
X126981197Y-86724798D03*
%TD*%
%TO.C,J7*%
X114231196Y-96224798D03*
X117731199Y-101224798D03*
%TD*%
%TO.C,J9*%
X132731197Y-96224798D03*
X136231200Y-101224798D03*
%TD*%
%TO.C,J10*%
X141981196Y-96224798D03*
X145481199Y-101224798D03*
%TD*%
%TO.C,J13*%
X114250000Y-111000000D03*
X117750003Y-116000000D03*
%TD*%
%TO.C,J3*%
X132731131Y-81724798D03*
X136231134Y-86724798D03*
%TD*%
%TO.C,J1*%
X114250000Y-81750000D03*
X117750003Y-86750000D03*
%TD*%
D10*
%TO.C,H2*%
X171250000Y-80000000D03*
%TD*%
D11*
%TO.C,J15*%
X132750000Y-111000000D03*
X136250003Y-116000000D03*
%TD*%
%TO.C,J6*%
X160481131Y-81724798D03*
X163981134Y-86724798D03*
%TD*%
%TO.C,J16*%
X142000000Y-111000000D03*
X145500003Y-116000000D03*
%TD*%
%TO.C,J18*%
X160500000Y-111000000D03*
X164000003Y-116000000D03*
%TD*%
%TO.C,J8*%
X123481131Y-96224798D03*
X126981134Y-101224798D03*
%TD*%
%TO.C,J4*%
X141981196Y-81750000D03*
X145481199Y-86750000D03*
%TD*%
%TO.C,J14*%
X123500000Y-111000000D03*
X127000003Y-116000000D03*
%TD*%
%TO.C,J11*%
X151231196Y-96224798D03*
X154731199Y-101224798D03*
%TD*%
%TO.C,J5*%
X151231194Y-81724798D03*
X154731197Y-86724798D03*
%TD*%
%TO.C,J17*%
X151250000Y-111000000D03*
X154750003Y-116000000D03*
%TD*%
%TO.C,J12*%
X160481196Y-96224798D03*
X163981199Y-101224798D03*
%TD*%
D10*
%TO.C,H3*%
X105000000Y-120750000D03*
%TD*%
%TO.C,H1*%
X105000000Y-80000000D03*
%TD*%
M02*
