M48
; DRILL file {KiCad 7.0.10} date Sat Jan 27 09:00:30 2024
; FORMAT={-:-/ absolute / inch / decimal}
; #@! TF.CreationDate,2024-01-27T09:00:30-05:00
; #@! TF.GenerationSoftware,Kicad,Pcbnew,7.0.10
; #@! TF.FileFunction,Plated,1,2,PTH
FMAT,2
INCH
; #@! TA.AperFunction,Plated,PTH,ComponentDrill
T1C0.0400
%
G90
G05
T1
X4.4973Y-3.7884
X4.498Y-3.2185
X4.498Y-4.3701
X4.6351Y-3.9852
X4.6358Y-3.4154
X4.6358Y-4.5669
X4.8615Y-3.7884
X4.8615Y-3.2175
X4.8622Y-4.3701
X4.9993Y-3.9852
X4.9993Y-3.4144
X5.0Y-4.5669
X5.2256Y-3.2175
X5.2256Y-3.7884
X5.2264Y-4.3701
X5.3634Y-3.4144
X5.3634Y-3.9852
X5.3642Y-4.5669
X5.5898Y-3.2185
X5.5898Y-3.7884
X5.5906Y-4.3701
X5.7276Y-3.4154
X5.7276Y-3.9852
X5.7283Y-4.5669
X5.954Y-3.2175
X5.954Y-3.7884
X5.9547Y-4.3701
X6.0918Y-3.4144
X6.0918Y-3.9852
X6.0925Y-4.5669
X6.3182Y-3.2175
X6.3182Y-3.7884
X6.3189Y-4.3701
X6.456Y-3.4144
X6.456Y-3.9852
X6.4567Y-4.5669
M30
